<?xml version="1.0" standalone="no"?>
<!DOCTYPE svg PUBLIC "-//W3C//DTD SVG 20010904//EN"
 "http://www.w3.org/TR/2001/REC-SVG-20010904/DTD/svg10.dtd">
<svg version="1.0" xmlns="http://www.w3.org/2000/svg"
 width="225.000000pt" height="225.000000pt" viewBox="0 0 225.000000 225.000000"
 preserveAspectRatio="xMidYMid meet">
<metadata>
Created by potrace 1.14, written by Peter Selinger 2001-2017
</metadata>
<g transform="translate(0.000000,225.000000) scale(0.100000,-0.100000)"
fill="#000000" stroke="none">
<path d="M965 2240 c-238 -37 -463 -151 -633 -321 -171 -171 -278 -380 -317
-621 -18 -114 -14 -297 9 -403 144 -670 846 -1059 1486 -826 357 131 619 427
710 802 29 116 35 325 14 439 -55 297 -205 541 -441 719 -97 73 -268 154 -393
186 -118 29 -327 41 -435 25z m-377 -1594 c3 -25 1 -27 -25 -24 -27 3 -29 8
-24 48 0 5 11 8 24 6 15 -2 23 -11 25 -30z m123 25 c3 -1 5 -11 4 -23 -1 -17
-9 -24 -28 -26 -23 -3 -27 1 -27 21 0 29 6 36 28 32 9 -2 20 -4 23 -4z m127
-24 c3 -23 0 -27 -22 -27 -30 0 -40 13 -31 40 10 30 49 20 53 -13z m123 24 c3
-1 5 -11 4 -23 -1 -17 -9 -24 -28 -26 -23 -3 -27 1 -27 21 0 29 6 36 28 32 9
-2 20 -4 23 -4z m113 3 c9 -3 16 -17 16 -30 0 -20 -5 -24 -29 -24 -23 0 -28 4
-27 23 0 12 6 25 11 29 12 9 10 9 29 2z m-414 -109 c0 -20 -5 -25 -25 -25 -20
0 -25 5 -25 25 0 20 5 25 25 25 20 0 25 -5 25 -25z m130 0 c0 -21 -5 -25 -30
-25 -25 0 -30 4 -30 25 0 21 5 25 30 25 25 0 30 -4 30 -25z m120 0 c0 -21 -5
-25 -27 -25 -23 0 -28 4 -28 25 0 21 5 25 28 25 22 0 27 -4 27 -25z m128 0
c-2 -20 -8 -25 -30 -25 -23 0 -28 4 -28 25 0 21 5 25 30 25 26 0 29 -3 28 -25z
m122 -1 c0 -20 -4 -25 -22 -22 -44 6 -45 48 -2 48 19 0 24 -5 24 -26z m500 1
c0 -20 -5 -25 -25 -25 -20 0 -25 5 -25 25 0 20 5 25 25 25 20 0 25 -5 25 -25z
m-1072 -92 c-5 -45 -48 -38 -55 10 -2 13 4 17 28 17 27 0 30 -3 27 -27z m125
7 c5 -21 -9 -37 -33 -36 -9 1 -16 12 -18 29 -3 23 0 27 21 27 16 0 26 -7 30
-20z m125 -7 c-2 -22 -8 -28 -27 -27 -19 0 -24 6 -27 27 -2 24 1 27 27 27 27
0 30 -3 27 -27z m288 2 c0 -20 -5 -25 -25 -26 -30 -1 -160 -1 -178 0 -7 1 -13
12 -13 26 l0 25 108 0 108 0 0 -25z"/>
</g>
</svg>
