<?xml version="1.0" standalone="no"?>
<!DOCTYPE svg PUBLIC "-//W3C//DTD SVG 20010904//EN"
 "http://www.w3.org/TR/2001/REC-SVG-20010904/DTD/svg10.dtd">
<svg version="1.0" xmlns="http://www.w3.org/2000/svg"
 width="225.000000pt" height="225.000000pt" viewBox="0 0 225.000000 225.000000"
 preserveAspectRatio="xMidYMid meet">
<metadata>
Created by potrace 1.14, written by Peter Selinger 2001-2017
</metadata>
<g transform="translate(0.000000,225.000000) scale(0.100000,-0.100000)"
fill="#000000" stroke="none">
<path d="M478 1799 c-17 -9 -18 -40 -18 -420 l0 -409 26 -10 c14 -6 81 -10
150 -10 l124 0 0 -50 c0 -47 -2 -50 -25 -50 -21 0 -25 -5 -25 -30 l0 -30 415
0 415 0 0 30 c0 25 -4 30 -25 30 -23 0 -25 3 -25 50 l0 50 138 0 c122 0 141 2
155 18 15 17 17 60 17 414 0 370 -1 396 -18 411 -17 15 -76 17 -653 17 -412
-1 -640 -4 -651 -11z m1257 -419 l0 -375 -610 0 -610 0 -3 378 -2 377 612 -2
613 -3 0 -375z"/>
<path d="M448 729 c-16 -9 -18 -28 -18 -163 0 -117 3 -156 14 -165 9 -8 199
-10 692 -9 l679 3 3 159 c2 108 -1 163 -9 172 -10 12 -122 14 -678 14 -434 -1
-672 -4 -683 -11z m142 -79 c0 -27 -3 -30 -30 -30 -25 0 -30 4 -30 23 0 30 7
37 37 37 19 0 23 -5 23 -30z m128 -2 c3 -25 0 -28 -27 -28 -28 0 -31 3 -31 31
0 27 3 30 28 27 21 -2 28 -9 30 -30z m122 2 c0 -27 -3 -30 -30 -30 -25 0 -30
4 -30 23 0 13 3 27 7 30 3 4 17 7 30 7 19 0 23 -5 23 -30z m128 -2 c3 -25 0
-28 -27 -28 -28 0 -31 3 -31 31 0 27 3 30 28 27 21 -2 28 -9 30 -30z m122 2
c0 -27 -3 -30 -30 -30 -25 0 -30 4 -30 23 0 13 3 27 7 30 3 4 17 7 30 7 19 0
23 -5 23 -30z m120 -5 c0 -20 -5 -25 -25 -25 -20 0 -25 5 -25 25 0 20 5 25 25
25 20 0 25 -5 25 -25z m130 0 c0 -20 -5 -25 -25 -25 -20 0 -25 5 -25 25 0 20
5 25 25 25 20 0 25 -5 25 -25z m120 0 c0 -20 -5 -25 -25 -25 -20 0 -25 5 -25
25 0 20 5 25 25 25 20 0 25 -5 25 -25z m130 0 c0 -20 -5 -25 -25 -25 -20 0
-25 5 -25 25 0 20 5 25 25 25 20 0 25 -5 25 -25z m120 0 c0 -20 -5 -25 -25
-25 -20 0 -25 5 -25 25 0 20 5 25 25 25 20 0 25 -5 25 -25z m-1050 -80 c0 -20
-5 -25 -25 -25 -20 0 -25 5 -25 25 0 20 5 25 25 25 20 0 25 -5 25 -25z m130 0
c0 -21 -5 -25 -30 -25 -25 0 -30 4 -30 25 0 21 5 25 30 25 25 0 30 -4 30 -25z
m120 0 c0 -20 -5 -25 -25 -25 -20 0 -25 5 -25 25 0 20 5 25 25 25 20 0 25 -5
25 -25z m130 0 c0 -21 -5 -25 -30 -25 -25 0 -30 4 -30 25 0 21 5 25 30 25 25
0 30 -4 30 -25z m120 0 c0 -20 -5 -25 -25 -25 -20 0 -25 5 -25 25 0 20 5 25
25 25 20 0 25 -5 25 -25z m130 0 c0 -21 -5 -25 -30 -25 -25 0 -30 4 -30 25 0
21 5 25 30 25 25 0 30 -4 30 -25z m120 0 c0 -20 -5 -25 -25 -25 -20 0 -25 5
-25 25 0 20 5 25 25 25 20 0 25 -5 25 -25z m130 0 c0 -21 -5 -25 -30 -25 -25
0 -30 4 -30 25 0 21 5 25 30 25 25 0 30 -4 30 -25z m120 0 c0 -20 -5 -25 -25
-25 -20 0 -25 5 -25 25 0 20 5 25 25 25 20 0 25 -5 25 -25z m-1070 -90 c0 -21
-5 -25 -30 -25 -25 0 -30 4 -30 25 0 21 5 25 30 25 25 0 30 -4 30 -25z m130 0
c0 -21 -5 -25 -30 -25 -25 0 -30 4 -30 25 0 21 5 25 30 25 25 0 30 -4 30 -25z
m120 0 c0 -21 -5 -25 -30 -25 -25 0 -30 4 -30 25 0 21 5 25 30 25 25 0 30 -4
30 -25z m500 0 l0 -25 -215 0 -215 0 0 25 0 25 215 0 215 0 0 -25z m120 0 c0
-20 -5 -25 -25 -25 -20 0 -25 5 -25 25 0 20 5 25 25 25 20 0 25 -5 25 -25z
m130 0 c0 -20 -5 -25 -25 -25 -20 0 -25 5 -25 25 0 20 5 25 25 25 20 0 25 -5
25 -25z m120 0 c0 -20 -5 -25 -25 -25 -20 0 -25 5 -25 25 0 20 5 25 25 25 20
0 25 -5 25 -25z"/>
</g>
</svg>
